<?xml version="1.0" encoding="UTF-8"?>
<svg xmlns="http://www.w3.org/2000/svg" width="1200" height="630" viewBox="0 0 1200 630">
  <defs>
    <linearGradient id="bgGradient" x1="0%" y1="0%" x2="100%" y2="100%">
      <stop offset="0%" style="stop-color:#4f46e5;stop-opacity:1" />
      <stop offset="50%" style="stop-color:#7c3aed;stop-opacity:1" />
      <stop offset="100%" style="stop-color:#9333ea;stop-opacity:1" />
    </linearGradient>
    <linearGradient id="logoWhite" x1="0%" y1="0%" x2="100%" y2="100%">
      <stop offset="0%" style="stop-color:#ffffff;stop-opacity:1" />
      <stop offset="100%" style="stop-color:#e0e7ff;stop-opacity:1" />
    </linearGradient>
  </defs>

  <!-- Background -->
  <rect width="1200" height="630" fill="url(#bgGradient)"/>

  <!-- Decorative circles -->
  <circle cx="100" cy="100" r="200" fill="white" opacity="0.05"/>
  <circle cx="1100" cy="530" r="250" fill="white" opacity="0.05"/>
  <circle cx="900" cy="100" r="150" fill="white" opacity="0.03"/>

  <!-- Logo centered -->
  <g transform="translate(460, 140) scale(2)">
    <path fill="url(#logoWhite)" d="M120.55,5.88c-6.14-3.73-13.34-5.88-21.05-5.88-11.6,0-22.06,4.87-29.45,12.67C62.65,4.87,52.19,0,40.59,0,18.17,0,0,18.17,0,40.59c0,0,0,3.07.82,8.11,0,.03,0,.05,0,.08,2.12,13.05,9.68,39.19,36.61,59.69-14.03-13.29-14.68-27.3-14.68-27.3-5.78-3.57-9.22-7.79-11.07-12.1-7.2-16.74,9.59-35.02,7.28-23.56-2.9,14.42,8.58,24.49,19.71,25.95,1.03.14,2.07.16,3.13.09.25-.02.51-.04.77-.07,11.69-1.13,19.04-14.52,22.65-14.52.58,0,.92.29.96.97.21,3.68-.48,10.79-4.51,17.33-2.15,3.49-4.89,7.13-6.8,11.72-5.97,14.31,9.35,36.17,9.85,36.88h0c1.72.72,3.49,1.4,5.31,2.06h0c.31-.66,12.46-25.9,15.54-47.21,1.1-7.62,1.05-14.74-1.14-20.05,0,0-5.39-1.41-11.78-3.78-6.39-2.37-13.8-5.69-17.84-9.51-.12-.11-.23-.22-.35-.34-1.77-1.77-2.79-3.65-2.66-5.59.76-10.5,26.68,13.42,47.29,3.61,20.6-9.81,13.38-29.08,17.7-32.95.39-.35.84-.52,1.31-.52,4.83,0,13.11,17.1,2.98,37.7,0,0,4,11.79,4.11,24.69.03,3.38-.22,6.84-.86,10.18h0c6.59-9.02,11.85-19.38,14.31-30.96.73-3.43,1.21-6.97,1.4-10.61,0-14.71-7.82-27.59-19.54-34.71ZM54.38,55.33c0,6.95-5.28,12.66-12.05,13.34-.22.02-.44.04-.65.05-.23,0-.46.02-.69.02-7.4,0-13.4-5.99-13.4-13.4s6-13.39,13.4-13.39c3.47,0,6.63,1.32,9.01,3.47,2.7,2.46,4.39,5.99,4.39,9.92ZM91.41,41.96c-8.44,0-15.29-6.84-15.29-15.29s6.85-15.29,15.29-15.29,15.29,6.85,15.29,15.29-6.84,15.29-15.29,15.29Z"/>
  </g>

  <!-- Text -->
  <text x="600" y="480" font-family="Inter, system-ui, sans-serif" font-size="72" font-weight="700" fill="white" text-anchor="middle">VEDZEB</text>
  <text x="600" y="540" font-family="Inter, system-ui, sans-serif" font-size="28" font-weight="400" fill="white" opacity="0.9" text-anchor="middle">დაკარგული დედმამიშვილების საძიებო პლატფორმა</text>
</svg>
